<svg height="512" viewBox="0 0 64 64" width="512" xmlns="http://www.w3.org/2000/svg"><path d="m61 53v4a4 4 0 1 1 -8 0v-4z" fill="#a78966"/><path d="m57 47a3.995 3.995 0 0 1 4 4v2h-8v-2a4 4 0 0 1 4-4z" fill="#ffde55"/><path d="m61 23v14a2.006 2.006 0 0 1 -2 2h-12a2.006 2.006 0 0 1 -2-2v-14zm-5 9a3 3 0 1 0 -3 3 3 3 0 0 0 3-3z" fill="#c0ab91"/><path d="m61 5v18h-16v-18a2.006 2.006 0 0 1 2-2h12a2.006 2.006 0 0 1 2 2zm-4 6v-4h-8v4z" fill="#c0ab91"/><path d="m49 7h8v4h-8z" fill="#ffde55"/><circle cx="53" cy="32" fill="#cd2a00" r="3"/><path d="m39 55v4a2.006 2.006 0 0 1 -2 2h-32a2.006 2.006 0 0 1 -2-2v-8a2.006 2.006 0 0 1 2-2h32a2.006 2.006 0 0 1 2 2z" fill="#c6c5ca"/><path d="m39 5v20a2.006 2.006 0 0 1 -2 2h-32a2.006 2.006 0 0 1 -2-2v-20a2.006 2.006 0 0 1 2-2h32a2.006 2.006 0 0 1 2 2zm-3 19v-18h-30v18z" fill="#c6c5ca"/><path d="m6 6h30v18h-30z" fill="#46f8ff"/><path d="m29 39h-16a3.995 3.995 0 0 1 4-4h8a4 4 0 0 1 4 4z" fill="#c6c5ca"/><path d="m19 27h4v8h-4z" fill="#898890"/><path d="m5 28h13v6h-1a5.006 5.006 0 0 0 -5 5 1 1 0 0 0 1 1h16a1 1 0 0 0 1-1 5.006 5.006 0 0 0 -5-5h-1v-6h13a3 3 0 0 0 3-3v-20a3 3 0 0 0 -3-3h-32a3 3 0 0 0 -3 3v20a3 3 0 0 0 3 3zm22.829 10h-13.658a3.006 3.006 0 0 1 2.829-2h8a3.006 3.006 0 0 1 2.829 2zm-5.829-4h-2v-6h2zm-18-29a1 1 0 0 1 1-1h32a1 1 0 0 1 1 1v20a1 1 0 0 1 -1 1h-32a1 1 0 0 1 -1-1z"/><path d="m6 25h30a1 1 0 0 0 1-1v-18a1 1 0 0 0 -1-1h-30a1 1 0 0 0 -1 1v18a1 1 0 0 0 1 1zm1-18h28v16h-28z"/><path d="m59 2h-12a3 3 0 0 0 -3 3v26h-8a3 3 0 0 0 -3 3v9a3 3 0 0 0 3 3h5a1 1 0 0 1 1 1v6a1 1 0 0 1 -1 1h-1v-3a3 3 0 0 0 -3-3h-32a3 3 0 0 0 -3 3v8a3 3 0 0 0 3 3h32a3 3 0 0 0 3-3v-3h1a3 3 0 0 0 3-3v-6a3 3 0 0 0 -3-3h-5a1 1 0 0 1 -1-1v-9a1 1 0 0 1 1-1h8v4a3 3 0 0 0 3 3h12a3 3 0 0 0 3-3v-32a3 3 0 0 0 -3-3zm-21 57a1 1 0 0 1 -1 1h-32a1 1 0 0 1 -1-1v-8a1 1 0 0 1 1-1h32a1 1 0 0 1 1 1zm22-22a1 1 0 0 1 -1 1h-12a1 1 0 0 1 -1-1v-32a1 1 0 0 1 1-1h12a1 1 0 0 1 1 1z"/><path d="m57 6h-8a1 1 0 0 0 -1 1v4a1 1 0 0 0 1 1h8a1 1 0 0 0 1-1v-4a1 1 0 0 0 -1-1zm-1 4h-6v-2h6z"/><path d="m53 28a4 4 0 1 0 4 4 4 4 0 0 0 -4-4zm0 6a2 2 0 1 1 2-2 2 2 0 0 1 -2 2z"/><path d="m48 14h10v2h-10z"/><path d="m48 18h10v2h-10z"/><path d="m48 22h10v2h-10z"/><path d="m10 57h22v2h-22z"/><path d="m6 51h2v2h-2z"/><path d="m10 51h2v2h-2z"/><path d="m14 51h2v2h-2z"/><path d="m18 51h2v2h-2z"/><path d="m22 51h2v2h-2z"/><path d="m26 51h2v2h-2z"/><path d="m30 51h2v2h-2z"/><path d="m34 51h2v2h-2z"/><path d="m6 54h2v2h-2z"/><path d="m6 57h2v2h-2z"/><path d="m34 57h2v2h-2z"/><path d="m10 54h2v2h-2z"/><path d="m14 54h2v2h-2z"/><path d="m18 54h2v2h-2z"/><path d="m22 54h2v2h-2z"/><path d="m26 54h2v2h-2z"/><path d="m30 54h2v2h-2z"/><path d="m34 54h2v2h-2z"/><path d="m57 46a5.006 5.006 0 0 0 -5 5v6a5 5 0 0 0 10 0v-6a5.006 5.006 0 0 0 -5-5zm-3 5a3 3 0 0 1 2-2.816v1.816h2v-1.816a3 3 0 0 1 2 2.816v1h-6zm3 9a3 3 0 0 1 -3-3v-3h6v3a3 3 0 0 1 -3 3z"/><path d="m8 9v3h2v-2h4v-2h-5a1 1 0 0 0 -1 1z"/><path d="m8 14h2v2h-2z"/></svg>