<?xml version="1.0" encoding="UTF-8"?>
<svg xmlns="http://www.w3.org/2000/svg" xmlns:xlink="http://www.w3.org/1999/xlink" viewBox="0 0 48 48" version="1.1" width="48px" height="48px">
<g id="surface1">
<path style=" fill:#1565C0;" d="M 40.632813 29.027344 C 38.234375 28.21875 35.832031 27.957031 33.59375 28.066406 C 31.523438 28.105469 29.371094 28.484375 27.160156 29.1875 L 26.386719 29.464844 L 32.230469 31.289063 L 33.804688 30.726563 C 33.804688 30.726563 34.53125 30.46875 35.296875 30.355469 C 36.277344 30.214844 37.273438 30.460938 37.273438 30.460938 C 37.828125 30.59375 38.125 30.726563 38.234375 30.992188 C 38.335938 31.3125 37.964844 31.578125 37.164063 31.847656 L 35.738281 32.390625 L 41.304688 34.128906 C 43.222656 33.363281 44.09375 32.542969 43.992188 31.527344 C 43.9375 30.515625 42.761719 29.71875 40.632813 29.027344 Z "/>
<path style=" fill:#1565C0;" d="M 22 28.09375 L 22 25 L 17.121094 26.566406 Z "/>
<path style=" fill:#FF9800;" d="M 18.71875 32.195313 L 17.351563 32.679688 L 16.105469 33.128906 L 14.769531 33.660156 C 14.769531 33.660156 13.566406 34.023438 12.53125 34.089844 C 11.5 34.15625 10.398438 33.820313 10.398438 33.820313 C 9.953125 33.65625 9.863281 33.289063 10.132813 33.023438 C 10.398438 32.863281 10.773438 32.648438 11.199219 32.484375 L 12.636719 31.957031 L 15.199219 31.09375 L 9.425781 29.285156 L 8.371094 29.664063 L 7.039063 30.199219 C 5.015625 31.050781 3.945313 31.957031 4 32.757813 C 4.105469 33.925781 5.441406 34.78125 7.839844 35.425781 C 10.957031 36.265625 14.121094 36.4375 17.355469 35.949219 C 17.355469 35.949219 19.898438 35.46875 24.453125 33.988281 Z "/>
<path style=" fill:#FF9800;" d="M 28.316406 35.195313 L 25.605469 36.222656 L 25.605469 40 L 30.929688 37.929688 L 33.796875 36.910156 Z "/>
<path style=" fill:#00BCD4;" d="M 22 28.09375 L 17.121094 26.566406 L 16.105469 26.894531 L 9.425781 29.289063 L 15.199219 31.09375 L 22 28.800781 Z "/>
<path style=" fill:#00BCD4;" d="M 32.230469 31.292969 L 26.386719 29.464844 L 18.71875 32.195313 L 24.457031 33.988281 C 25.292969 33.71875 26.191406 33.414063 27.160156 33.070313 C 28.214844 32.703125 31.5625 31.53125 31.5625 31.53125 Z "/>
<path style=" fill:#00BCD4;" d="M 35.738281 32.390625 L 35.191406 32.597656 L 28.316406 35.195313 L 33.796875 36.910156 L 39.9375 34.730469 L 41.003906 34.253906 C 41.109375 34.214844 41.203125 34.171875 41.304688 34.132813 Z "/>
<path style=" fill:#F44336;" d="M 34.203125 14.324219 C 33.078125 12.808594 31.109375 11.570313 28.1875 10.558594 C 24.539063 9.378906 21.472656 8.519531 19 8 L 19 37.976563 L 25.605469 40 L 25.605469 15.058594 C 25.605469 14.382813 25.660156 13.929688 25.941406 13.648438 C 26.222656 13.257813 26.503906 13.203125 26.898438 13.371094 C 27.851563 13.648438 28.300781 14.496094 28.300781 15.898438 L 28.300781 26.128906 C 30.4375 27.140625 32.351563 27.25 33.753906 26.1875 C 35.214844 25.171875 36 23.375 36 20.679688 C 36 17.867188 35.4375 15.734375 34.203125 14.324219 Z "/>
</g>
</svg>
